<svg width="47" height="10" viewBox="0 0 47 10" fill="none" xmlns="http://www.w3.org/2000/svg">
<path d="M4.212 1.5C4.3 1.516 4.496 1.824 4.8 2.424C5.104 3.016 5.476 3.784 5.916 4.728L6.3 5.532C6.468 5.348 6.624 5.136 6.768 4.896C6.912 4.648 7.092 4.316 7.308 3.9C7.556 3.428 7.728 3.124 7.824 2.988C8.208 2.404 8.624 1.784 9.072 1.128C9.128 1.04 9.228 0.98 9.372 0.948C9.396 0.94 9.436 0.935999 9.492 0.935999C9.684 0.935999 9.896 1.016 10.128 1.176C10.368 1.336 10.524 1.5 10.596 1.668C10.612 1.7 10.62 1.76 10.62 1.848C10.62 1.928 10.616 1.988 10.608 2.028C10.592 2.1 10.572 2.192 10.548 2.304C10.532 2.408 10.516 2.532 10.5 2.676C10.244 4.628 10.06 6.092 9.948 7.068C9.916 7.292 9.9 7.544 9.9 7.824L9.876 8.208C9.868 8.288 9.864 8.38 9.864 8.484C9.864 8.588 9.852 8.66 9.828 8.7C9.804 8.74 9.76 8.76 9.696 8.76C9.648 8.76 9.576 8.748 9.48 8.724C9.224 8.668 9.028 8.568 8.892 8.424C8.756 8.272 8.68 8.064 8.664 7.8C8.656 7.664 8.652 7.452 8.652 7.164C8.652 6.868 8.66 6.416 8.676 5.808L8.688 5.148L8.712 4.2C8.64 4.264 8.456 4.516 8.16 4.956C7.872 5.388 7.588 5.84 7.308 6.312C7.028 6.784 6.844 7.148 6.756 7.404C6.676 7.604 6.596 7.752 6.516 7.848C6.444 7.944 6.356 7.992 6.252 7.992C6.156 7.992 6.032 7.948 5.88 7.86C5.448 7.596 5.184 7.232 5.088 6.768C4.936 6.056 4.748 5.316 4.524 4.548C4.484 4.404 4.404 4.208 4.284 3.96C4.172 3.712 4.1 3.556 4.068 3.492L3.912 3.18C2.744 4.732 1.952 6.156 1.536 7.452C1.456 7.724 1.38 7.92 1.308 8.04C1.236 8.152 1.152 8.208 1.056 8.208C0.904 8.208 0.688 8.072 0.408 7.8C0.192 7.608 0.084 7.392 0.084 7.152C0.084 7.024 0.108 6.896 0.156 6.768C0.492 5.776 0.992 4.836 1.656 3.948L2.028 3.456C2.532 2.792 2.912 2.272 3.168 1.896C3.36 1.616 3.616 1.476 3.936 1.476C3.992 1.476 4.084 1.484 4.212 1.5ZM16.9148 6.816C16.8748 6.816 16.8228 6.812 16.7588 6.804C16.6948 6.796 16.6388 6.796 16.5908 6.804C16.2868 6.852 16.0628 6.892 15.9188 6.924C15.4788 7.004 15.1588 7.056 14.9588 7.08L14.8388 7.092C14.5508 7.092 14.2868 6.944 14.0468 6.648C13.9348 6.512 13.8788 6.38 13.8788 6.252C13.8788 6.124 13.9308 6.004 14.0348 5.892L18.4628 5.364C18.5108 5.428 18.5908 5.516 18.7028 5.628C18.8868 5.812 19.0188 5.972 19.0988 6.108C19.1868 6.244 19.2188 6.408 19.1948 6.6C19.1468 6.656 19.0788 6.728 18.9908 6.816C18.9108 6.896 18.8508 6.972 18.8108 7.044C18.5708 7.436 18.2748 7.772 17.9228 8.052C17.5708 8.324 17.1588 8.564 16.6868 8.772L16.4588 8.868C16.2508 8.964 16.0788 9.032 15.9428 9.072C15.8148 9.12 15.6748 9.156 15.5228 9.18C15.3468 9.204 15.1748 9.216 15.0068 9.216C14.1828 9.216 13.3948 8.896 12.6428 8.256C12.3468 8.008 12.1348 7.728 12.0068 7.416C11.8788 7.104 11.8148 6.756 11.8148 6.372C11.8148 5.636 11.9948 4.912 12.3548 4.2C12.7148 3.488 13.2108 2.88 13.8428 2.376C14.4748 1.864 15.1708 1.524 15.9308 1.356C16.1468 1.316 16.3428 1.296 16.5188 1.296C17.0708 1.296 17.5348 1.484 17.9108 1.86C18.0468 1.996 18.1148 2.132 18.1148 2.268C18.1148 2.356 18.0868 2.456 18.0308 2.568C17.9988 2.568 17.9508 2.576 17.8868 2.592C17.8308 2.6 17.7868 2.6 17.7548 2.592C17.5148 2.488 17.2748 2.436 17.0348 2.436C16.6268 2.436 16.1548 2.592 15.6188 2.904C14.0828 3.792 13.2268 5 13.0508 6.528C13.0428 6.568 13.0388 6.628 13.0388 6.708C13.0388 7.068 13.1508 7.388 13.3748 7.668C13.6068 7.94 13.9028 8.092 14.2628 8.124L14.4548 8.136C14.7588 8.136 15.0508 8.084 15.3308 7.98C15.6108 7.868 15.8548 7.744 16.0628 7.608C16.2708 7.464 16.5668 7.252 16.9508 6.972L16.9148 6.816ZM21.977 3.912C22.001 3.992 22.005 4.116 21.989 4.284L21.845 5.7C21.885 5.668 21.945 5.556 22.025 5.364C22.105 5.164 22.181 5.004 22.253 4.884C22.325 4.756 22.381 4.672 22.421 4.632C22.797 4.272 23.221 4.056 23.693 3.984C24.165 3.912 24.685 3.88 25.253 3.888C25.309 3.888 25.369 3.912 25.433 3.96C25.505 4 25.541 4.036 25.541 4.068C25.541 4.092 25.517 4.136 25.469 4.2C25.421 4.256 25.377 4.292 25.337 4.308C24.857 4.468 24.433 4.652 24.065 4.86C23.705 5.068 23.393 5.34 23.129 5.676C22.505 6.468 22.145 7.284 22.049 8.124C22.025 8.348 21.957 8.5 21.845 8.58C21.733 8.652 21.577 8.688 21.377 8.688C21.153 8.688 20.953 8.592 20.777 8.4C20.601 8.208 20.513 7.996 20.513 7.764C20.521 6.916 20.525 5.644 20.525 3.948C20.525 3.716 20.577 3.556 20.681 3.468C20.785 3.372 20.973 3.324 21.245 3.324C21.445 3.324 21.613 3.38 21.749 3.492C21.893 3.604 21.969 3.744 21.977 3.912ZM27.8504 7.128C27.7704 7.176 27.6544 7.2 27.5024 7.2C27.4464 7.2 27.3784 7.196 27.2984 7.188C27.2184 7.18 27.1504 7.18 27.0944 7.188C27.1584 7.452 27.3104 7.668 27.5504 7.836C27.7904 7.996 28.0584 8.076 28.3544 8.076C28.6104 8.076 28.8384 8.02 29.0384 7.908C29.3344 7.756 29.5904 7.576 29.8064 7.368C29.9584 7.216 30.1024 7.14 30.2384 7.14C30.3264 7.14 30.4024 7.184 30.4664 7.272C30.5304 7.376 30.5624 7.504 30.5624 7.656C30.5624 7.816 30.5304 7.94 30.4664 8.028C30.2584 8.348 29.9864 8.568 29.6504 8.688C29.3224 8.808 28.9384 8.868 28.4984 8.868C28.0424 8.868 27.6024 8.768 27.1784 8.568C26.7544 8.368 26.3904 8.096 26.0864 7.752C25.7904 7.4 25.5944 7.012 25.4984 6.588C25.4344 6.34 25.4024 6.096 25.4024 5.856C25.4024 5.48 25.5064 5.176 25.7144 4.944C25.9304 4.712 26.2744 4.492 26.7464 4.284C27.1784 4.1 27.5784 4.008 27.9464 4.008C28.2104 4.008 28.4664 4.048 28.7144 4.128C29.4824 4.368 29.8664 4.696 29.8664 5.112C29.8664 5.376 29.7104 5.696 29.3984 6.072C29.2464 6.248 29.0664 6.404 28.8584 6.54C28.6504 6.676 28.4464 6.8 28.2464 6.912C28.0544 7.016 27.9224 7.088 27.8504 7.128ZM28.3544 4.908C28.3464 4.868 28.3144 4.836 28.2584 4.812C28.2104 4.78 28.1824 4.76 28.1744 4.752C27.9584 4.736 27.7384 4.8 27.5144 4.944C27.2904 5.08 27.1024 5.256 26.9504 5.472C26.8064 5.688 26.7344 5.896 26.7344 6.096L26.7464 6.192C26.7544 6.224 26.7944 6.264 26.8664 6.312C26.9464 6.36 26.9944 6.376 27.0104 6.36C27.5784 5.936 28.0064 5.596 28.2944 5.34C28.3424 5.292 28.3664 5.204 28.3664 5.076C28.3664 4.996 28.3624 4.94 28.3544 4.908ZM32.4044 4.32C32.4764 4.312 32.5364 4.312 32.5844 4.32C32.6324 4.32 32.6764 4.32 32.7164 4.32C32.7724 4.312 32.8564 4.308 32.9684 4.308C33.5124 4.308 34.0484 4.464 34.5764 4.776C34.8084 4.92 34.9244 5.072 34.9244 5.232C34.9244 5.408 34.8044 5.564 34.5644 5.7C34.3644 5.82 34.1564 5.96 33.9404 6.12C33.5564 6.376 33.2284 6.576 32.9564 6.72C32.6924 6.864 32.4004 6.964 32.0804 7.02C32.0324 7.036 31.9804 7.08 31.9244 7.152C31.8764 7.216 31.8564 7.264 31.8644 7.296C31.8804 7.344 31.9084 7.444 31.9484 7.596C31.9884 7.74 32.0324 7.864 32.0804 7.968C32.1364 8.064 32.2004 8.144 32.2724 8.208C32.3524 8.272 32.4724 8.304 32.6324 8.304C32.7924 8.304 32.9404 8.28 33.0764 8.232C33.5564 8.008 34.0124 7.728 34.4444 7.392C34.5724 7.304 34.6844 7.26 34.7804 7.26C34.9004 7.26 35.0284 7.324 35.1644 7.452C35.2604 7.54 35.3084 7.632 35.3084 7.728C35.3084 7.832 35.2324 7.96 35.0804 8.112C34.4004 8.776 33.6764 9.108 32.9084 9.108C32.7004 9.108 32.4444 9.068 32.1404 8.988C31.6284 8.86 31.2364 8.576 30.9644 8.136C30.6924 7.696 30.5564 7.192 30.5564 6.624C30.5564 6.448 30.5684 6.28 30.5924 6.12C30.6004 6.064 30.6164 5.948 30.6404 5.772C30.6724 5.588 30.7204 5.436 30.7844 5.316C31.0884 4.716 31.6284 4.384 32.4044 4.32ZM33.1004 5.184C32.9564 5.136 32.8284 5.112 32.7164 5.112C32.5324 5.112 32.3884 5.168 32.2844 5.28C32.1804 5.392 32.0964 5.56 32.0324 5.784C32.2244 5.808 32.4284 5.76 32.6444 5.64C32.8684 5.512 33.0204 5.36 33.1004 5.184ZM38.327 7.128C38.247 7.176 38.131 7.2 37.979 7.2C37.923 7.2 37.855 7.196 37.775 7.188C37.695 7.18 37.627 7.18 37.571 7.188C37.635 7.452 37.787 7.668 38.027 7.836C38.267 7.996 38.535 8.076 38.831 8.076C39.087 8.076 39.315 8.02 39.515 7.908C39.811 7.756 40.067 7.576 40.283 7.368C40.435 7.216 40.579 7.14 40.715 7.14C40.803 7.14 40.879 7.184 40.943 7.272C41.007 7.376 41.039 7.504 41.039 7.656C41.039 7.816 41.007 7.94 40.943 8.028C40.735 8.348 40.463 8.568 40.127 8.688C39.799 8.808 39.415 8.868 38.975 8.868C38.519 8.868 38.079 8.768 37.655 8.568C37.231 8.368 36.867 8.096 36.563 7.752C36.267 7.4 36.071 7.012 35.975 6.588C35.911 6.34 35.879 6.096 35.879 5.856C35.879 5.48 35.983 5.176 36.191 4.944C36.407 4.712 36.751 4.492 37.223 4.284C37.655 4.1 38.055 4.008 38.423 4.008C38.687 4.008 38.943 4.048 39.191 4.128C39.959 4.368 40.343 4.696 40.343 5.112C40.343 5.376 40.187 5.696 39.875 6.072C39.723 6.248 39.543 6.404 39.335 6.54C39.127 6.676 38.923 6.8 38.723 6.912C38.531 7.016 38.399 7.088 38.327 7.128ZM38.831 4.908C38.823 4.868 38.791 4.836 38.735 4.812C38.687 4.78 38.659 4.76 38.651 4.752C38.435 4.736 38.215 4.8 37.991 4.944C37.767 5.08 37.579 5.256 37.427 5.472C37.283 5.688 37.211 5.896 37.211 6.096L37.223 6.192C37.231 6.224 37.271 6.264 37.343 6.312C37.423 6.36 37.471 6.376 37.487 6.36C38.055 5.936 38.483 5.596 38.771 5.34C38.819 5.292 38.843 5.204 38.843 5.076C38.843 4.996 38.839 4.94 38.831 4.908ZM43.6763 4.476C43.6763 4.524 43.6683 4.588 43.6523 4.668C43.6363 4.74 43.6323 4.788 43.6403 4.812C44.1923 4.692 44.6603 4.632 45.0443 4.632C45.6443 4.632 46.0963 4.92 46.4003 5.496C46.6483 5.984 46.7723 6.524 46.7723 7.116C46.7723 7.268 46.7563 7.488 46.7243 7.776C46.7003 7.968 46.6243 8.124 46.4963 8.244C46.3683 8.356 46.2163 8.412 46.0403 8.412C45.8563 8.412 45.7243 8.38 45.6443 8.316C45.5723 8.244 45.5283 8.164 45.5123 8.076C45.5043 7.988 45.5003 7.848 45.5003 7.656L45.4883 7.404C45.4723 6.924 45.4403 6.508 45.3923 6.156C45.3683 6.012 45.3123 5.912 45.2243 5.856C45.1443 5.792 45.0363 5.76 44.9003 5.76C44.7723 5.76 44.6203 5.78 44.4443 5.82C44.1723 5.892 43.9883 5.948 43.8923 5.988C43.8043 6.028 43.6723 6.112 43.4963 6.24C43.4403 6.28 43.4003 6.36 43.3763 6.48C43.3523 6.6 43.3403 6.668 43.3403 6.684C43.2363 7.196 43.1243 7.808 43.0043 8.52C42.9963 8.552 42.9803 8.628 42.9563 8.748C42.9323 8.868 42.8843 8.952 42.8123 9C42.7483 9.056 42.6523 9.076 42.5243 9.06C42.0203 8.996 41.7643 8.784 41.7563 8.424C41.7483 7.96 41.7843 7.412 41.8643 6.78C41.9203 6.324 41.9723 5.956 42.0203 5.676C42.0363 5.548 42.0563 5.392 42.0803 5.208C42.1123 5.024 42.1403 4.812 42.1643 4.572C42.1883 4.388 42.2123 4.252 42.2363 4.164C42.2603 4.076 42.3163 4.004 42.4043 3.948C42.4923 3.884 42.6283 3.852 42.8123 3.852C43.0443 3.852 43.2363 3.904 43.3883 4.008C43.5403 4.112 43.6363 4.26 43.6763 4.452V4.476Z" fill="#05C26A"/>
</svg>
