<svg width="62" height="11" viewBox="0 0 62 11" fill="none" xmlns="http://www.w3.org/2000/svg">
<path d="M0.564 10.876C0.54 10.084 0.528 9.324 0.528 8.596C0.528 7.284 0.568 6.096 0.648 5.032C0.728 3.968 0.844 3.064 0.996 2.32C1.068 1.976 1.168 1.644 1.296 1.324C1.432 1.004 1.62 0.744 1.86 0.543999C2.108 0.336 2.432 0.232 2.832 0.232C3.224 0.232 3.556 0.336 3.828 0.543999C4.1 0.744 4.32 0.988 4.488 1.276C4.664 1.564 4.792 1.84 4.872 2.104C5.08 2.728 5.256 3.352 5.4 3.976C5.544 4.6 5.672 5.196 5.784 5.764C5.864 5.348 5.956 4.912 6.06 4.456C6.164 3.992 6.268 3.556 6.372 3.148C6.476 2.732 6.572 2.388 6.66 2.116C7.068 0.86 7.696 0.232 8.544 0.232C9.016 0.232 9.416 0.404 9.744 0.748C10.072 1.084 10.312 1.572 10.464 2.212C10.536 2.5 10.608 2.92 10.68 3.472C10.76 4.024 10.832 4.68 10.896 5.44C10.968 6.192 11.028 7.024 11.076 7.936C11.132 8.848 11.176 9.816 11.208 10.84L9.096 10.792C9.096 10.368 9.084 9.876 9.06 9.316C9.044 8.756 9.016 8.176 8.976 7.576C8.944 6.968 8.904 6.376 8.856 5.8C8.816 5.224 8.772 4.704 8.724 4.24C8.684 3.776 8.644 3.408 8.604 3.136C8.564 2.856 8.528 2.716 8.496 2.716C8.488 2.716 8.444 2.86 8.364 3.148C8.292 3.428 8.2 3.804 8.088 4.276C7.984 4.748 7.868 5.268 7.74 5.836C7.612 6.404 7.484 6.976 7.356 7.552C7.236 8.12 7.128 8.648 7.032 9.136C6.936 9.616 6.86 10.008 6.804 10.312L4.92 10.36C4.824 9.912 4.708 9.42 4.572 8.884C4.444 8.34 4.308 7.788 4.164 7.228C4.028 6.66 3.892 6.116 3.756 5.596C3.62 5.068 3.492 4.596 3.372 4.18C3.26 3.764 3.168 3.436 3.096 3.196C3.024 2.948 2.98 2.824 2.964 2.824C2.932 2.824 2.896 3 2.856 3.352C2.824 3.696 2.792 4.164 2.76 4.756C2.728 5.348 2.7 6.016 2.676 6.76C2.66 7.504 2.652 8.272 2.652 9.064C2.652 9.44 2.652 9.784 2.652 10.096C2.66 10.408 2.668 10.664 2.676 10.864L0.564 10.876ZM16.7093 10.564C15.8773 10.564 15.1773 10.416 14.6093 10.12C14.0413 9.832 13.5853 9.448 13.2413 8.968C12.9053 8.488 12.6613 7.964 12.5093 7.396C12.3573 6.828 12.2813 6.264 12.2813 5.704C12.2813 5.04 12.3893 4.384 12.6053 3.736C12.8213 3.088 13.1453 2.5 13.5773 1.972C14.0173 1.444 14.5613 1.02 15.2093 0.7C15.8653 0.379999 16.6293 0.219999 17.5013 0.219999C18.2373 0.219999 18.8813 0.327999 19.4333 0.543999C19.9853 0.752 20.4573 1.008 20.8493 1.312C21.2493 1.608 21.5693 1.888 21.8093 2.152L20.3093 3.772C20.0853 3.508 19.8453 3.26 19.5893 3.028C19.3413 2.796 19.0453 2.608 18.7013 2.464C18.3573 2.32 17.9333 2.248 17.4293 2.248C16.8853 2.248 16.4173 2.348 16.0253 2.548C15.6333 2.74 15.3133 3 15.0653 3.328C14.8173 3.656 14.6333 4.024 14.5133 4.432C14.4013 4.84 14.3453 5.26 14.3453 5.692C14.3453 6.204 14.4293 6.676 14.5973 7.108C14.7733 7.54 15.0333 7.888 15.3773 8.152C15.7293 8.416 16.1653 8.548 16.6853 8.548C17.3253 8.548 17.8533 8.4 18.2693 8.104C18.6853 7.808 18.9733 7.384 19.1333 6.832C18.7893 6.856 18.4573 6.888 18.1373 6.928C17.8253 6.96 17.5453 6.996 17.2973 7.036L17.0933 5.092C17.5653 4.988 18.1093 4.912 18.7253 4.864C19.3493 4.808 19.9453 4.78 20.5133 4.78C21.2973 4.78 21.8853 4.828 22.2773 4.924L22.2293 6.892C22.0613 6.844 21.7933 6.808 21.4253 6.784C21.4253 6.96 21.4253 7.144 21.4253 7.336C21.4333 7.528 21.4373 7.724 21.4373 7.924C21.4373 8.476 21.4293 9.02 21.4133 9.556C21.3973 10.092 21.3813 10.52 21.3653 10.84L19.3133 10.792C19.3213 10.688 19.3333 10.528 19.3493 10.312C19.3733 10.096 19.3973 9.852 19.4213 9.58C19.1493 9.868 18.7933 10.104 18.3533 10.288C17.9213 10.472 17.3733 10.564 16.7093 10.564ZM23.3327 10.936C23.3647 10.272 23.3887 9.608 23.4047 8.944C23.4207 8.28 23.4287 7.624 23.4287 6.976C23.4207 6.384 23.4087 5.8 23.3927 5.224C23.3847 4.64 23.3647 4.076 23.3327 3.532L25.3487 3.472C25.3567 3.768 25.3687 4.072 25.3847 4.384C25.6407 4.064 25.9367 3.808 26.2727 3.616C26.6167 3.416 27.0087 3.316 27.4487 3.316C27.6167 3.316 27.8327 3.34 28.0967 3.388C28.3607 3.436 28.6287 3.528 28.9007 3.664L28.6727 5.692C28.4727 5.572 28.2567 5.488 28.0247 5.44C27.8007 5.384 27.6127 5.356 27.4607 5.356C26.9487 5.356 26.5127 5.588 26.1527 6.052C25.8007 6.508 25.5607 7.144 25.4327 7.96C25.4327 8.52 25.4247 9.056 25.4087 9.568C25.4007 10.072 25.3807 10.528 25.3487 10.936H23.3327ZM33.0164 10.96C32.2484 10.96 31.5724 10.808 30.9884 10.504C30.4124 10.208 29.9604 9.792 29.6324 9.256C29.3124 8.72 29.1524 8.1 29.1524 7.396C29.1524 6.972 29.2244 6.528 29.3684 6.064C29.5124 5.592 29.7444 5.152 30.0644 4.744C30.3844 4.336 30.8044 4.004 31.3244 3.748C31.8524 3.492 32.4924 3.364 33.2444 3.364C33.7884 3.364 34.2444 3.424 34.6124 3.544C34.9884 3.664 35.2924 3.82 35.5244 4.012C35.7644 4.204 35.9444 4.408 36.0644 4.624C36.1924 4.84 36.2764 5.048 36.3164 5.248C36.3644 5.44 36.3884 5.6 36.3884 5.728C36.3884 6.504 36.0604 7.104 35.4044 7.528C34.7564 7.944 33.8364 8.152 32.6444 8.152C32.3724 8.152 32.1124 8.14 31.8644 8.116C31.6244 8.092 31.4004 8.064 31.1924 8.032C31.3444 8.432 31.5964 8.728 31.9484 8.92C32.3004 9.104 32.6644 9.196 33.0404 9.196C33.5844 9.196 34.0644 9.1 34.4804 8.908C34.8964 8.708 35.2884 8.404 35.6564 7.996L36.7244 9.532C36.4684 9.74 36.1804 9.956 35.8604 10.18C35.5484 10.404 35.1644 10.588 34.7084 10.732C34.2524 10.884 33.6884 10.96 33.0164 10.96ZM33.2804 5.164C32.8084 5.164 32.3924 5.284 32.0324 5.524C31.6724 5.764 31.4084 6.08 31.2404 6.472C31.4404 6.504 31.6364 6.532 31.8284 6.556C32.0284 6.572 32.2244 6.58 32.4164 6.58C32.5924 6.58 32.7924 6.564 33.0164 6.532C33.2484 6.5 33.4724 6.452 33.6884 6.388C33.9124 6.324 34.0964 6.244 34.2404 6.148C34.3844 6.044 34.4564 5.924 34.4564 5.788C34.4564 5.724 34.4244 5.644 34.3604 5.548C34.2964 5.452 34.1804 5.364 34.0124 5.284C33.8444 5.204 33.6004 5.164 33.2804 5.164ZM41.2781 10.96C40.5101 10.96 39.8341 10.808 39.2501 10.504C38.6741 10.208 38.2221 9.792 37.8941 9.256C37.5741 8.72 37.4141 8.1 37.4141 7.396C37.4141 6.972 37.4861 6.528 37.6301 6.064C37.7741 5.592 38.0061 5.152 38.3261 4.744C38.6461 4.336 39.0661 4.004 39.5861 3.748C40.1141 3.492 40.7541 3.364 41.5061 3.364C42.0501 3.364 42.5061 3.424 42.8741 3.544C43.2501 3.664 43.5541 3.82 43.7861 4.012C44.0261 4.204 44.2061 4.408 44.3261 4.624C44.4541 4.84 44.5381 5.048 44.5781 5.248C44.6261 5.44 44.6501 5.6 44.6501 5.728C44.6501 6.504 44.3221 7.104 43.6661 7.528C43.0181 7.944 42.0981 8.152 40.9061 8.152C40.6341 8.152 40.3741 8.14 40.1261 8.116C39.8861 8.092 39.6621 8.064 39.4541 8.032C39.6061 8.432 39.8581 8.728 40.2101 8.92C40.5621 9.104 40.9261 9.196 41.3021 9.196C41.8461 9.196 42.3261 9.1 42.7421 8.908C43.1581 8.708 43.5501 8.404 43.9181 7.996L44.9861 9.532C44.7301 9.74 44.4421 9.956 44.1221 10.18C43.8101 10.404 43.4261 10.588 42.9701 10.732C42.5141 10.884 41.9501 10.96 41.2781 10.96ZM41.5421 5.164C41.0701 5.164 40.6541 5.284 40.2941 5.524C39.9341 5.764 39.6701 6.08 39.5021 6.472C39.7021 6.504 39.8981 6.532 40.0901 6.556C40.2901 6.572 40.4861 6.58 40.6781 6.58C40.8541 6.58 41.0541 6.564 41.2781 6.532C41.5101 6.5 41.7341 6.452 41.9501 6.388C42.1741 6.324 42.3581 6.244 42.5021 6.148C42.6461 6.044 42.7181 5.924 42.7181 5.788C42.7181 5.724 42.6861 5.644 42.6221 5.548C42.5581 5.452 42.4421 5.364 42.2741 5.284C42.1061 5.204 41.8621 5.164 41.5421 5.164ZM49.5398 10.96C48.7718 10.96 48.0958 10.808 47.5118 10.504C46.9358 10.208 46.4838 9.792 46.1558 9.256C45.8358 8.72 45.6758 8.1 45.6758 7.396C45.6758 6.972 45.7478 6.528 45.8918 6.064C46.0358 5.592 46.2678 5.152 46.5878 4.744C46.9078 4.336 47.3278 4.004 47.8478 3.748C48.3758 3.492 49.0158 3.364 49.7678 3.364C50.3118 3.364 50.7678 3.424 51.1358 3.544C51.5118 3.664 51.8158 3.82 52.0478 4.012C52.2878 4.204 52.4678 4.408 52.5878 4.624C52.7158 4.84 52.7998 5.048 52.8398 5.248C52.8878 5.44 52.9118 5.6 52.9118 5.728C52.9118 6.504 52.5838 7.104 51.9278 7.528C51.2798 7.944 50.3598 8.152 49.1678 8.152C48.8958 8.152 48.6358 8.14 48.3878 8.116C48.1478 8.092 47.9238 8.064 47.7158 8.032C47.8678 8.432 48.1198 8.728 48.4718 8.92C48.8238 9.104 49.1878 9.196 49.5638 9.196C50.1078 9.196 50.5878 9.1 51.0038 8.908C51.4198 8.708 51.8118 8.404 52.1798 7.996L53.2478 9.532C52.9918 9.74 52.7038 9.956 52.3838 10.18C52.0718 10.404 51.6878 10.588 51.2318 10.732C50.7758 10.884 50.2118 10.96 49.5398 10.96ZM49.8038 5.164C49.3318 5.164 48.9158 5.284 48.5558 5.524C48.1958 5.764 47.9318 6.08 47.7638 6.472C47.9638 6.504 48.1598 6.532 48.3518 6.556C48.5518 6.572 48.7478 6.58 48.9398 6.58C49.1158 6.58 49.3158 6.564 49.5398 6.532C49.7718 6.5 49.9958 6.452 50.2118 6.388C50.4358 6.324 50.6198 6.244 50.7638 6.148C50.9078 6.044 50.9798 5.924 50.9798 5.788C50.9798 5.724 50.9478 5.644 50.8838 5.548C50.8198 5.452 50.7038 5.364 50.5358 5.284C50.3678 5.204 50.1238 5.164 49.8038 5.164ZM54.2736 10.864C54.2496 10.16 54.2296 9.508 54.2136 8.908C54.2056 8.308 54.2016 7.716 54.2016 7.132C54.2016 6.548 54.2056 5.964 54.2136 5.38C54.2296 4.788 54.2536 4.156 54.2856 3.484H56.3136C56.2816 3.844 56.2536 4.208 56.2296 4.576C56.5016 4.232 56.8256 3.948 57.2016 3.724C57.5776 3.492 58.0216 3.376 58.5336 3.376C59.0376 3.376 59.4496 3.46 59.7696 3.628C60.0976 3.796 60.3536 4.028 60.5376 4.324C60.7296 4.62 60.8656 4.96 60.9456 5.344C61.0336 5.72 61.0896 6.128 61.1136 6.568C61.1376 7 61.1496 7.436 61.1496 7.876C61.1496 8.356 61.1416 8.816 61.1256 9.256C61.1096 9.696 61.0936 10.064 61.0776 10.36C61.0616 10.656 61.0496 10.832 61.0416 10.888H59.0256C59.0416 10.56 59.0576 10.212 59.0736 9.844C59.0896 9.468 59.1056 9.1 59.1216 8.74C59.1376 8.372 59.1456 8.04 59.1456 7.744C59.1456 6.04 58.8696 5.188 58.3176 5.188C57.8616 5.188 57.4456 5.388 57.0696 5.788C56.7016 6.18 56.3936 6.676 56.1456 7.276C56.1456 7.356 56.1456 7.436 56.1456 7.516C56.1456 7.9 56.1456 8.3 56.1456 8.716C56.1536 9.124 56.1616 9.516 56.1696 9.892C56.1856 10.26 56.1976 10.58 56.2056 10.852L54.2736 10.864Z" fill="#05C26A"/>
</svg>
