<svg width="160" height="159" viewBox="0 0 160 159" fill="none" xmlns="http://www.w3.org/2000/svg">
<circle opacity="0.8" cx="74.1155" cy="84.0383" r="74.1155" fill="#05C26A" fill-opacity="0.15"/>
<circle cx="155.684" cy="65.8786" r="3.94969" fill="#05C26A"/>
<path d="M47.1523 34.281L101.461 65.5493M47.1523 34.281L69.2048 21.9851M47.1523 34.281V70.8156M155.769 34.281L101.461 4L81.0538 15.3783M155.769 34.281L135.033 46.2198M155.769 34.281V54.3585M101.461 65.5493L123.756 52.7128M101.461 65.5493V127.099M69.2048 21.9851L123.756 52.7128M69.2048 21.9851L81.0538 15.3783M123.756 52.7128V72.1321L135.033 65.5493V46.2198M123.756 52.7128L135.033 46.2198M135.033 46.2198L81.0538 15.3783M101.461 127.099L155.769 95.8303V76.411M101.461 127.099L89.2178 119.199" stroke="#05C26A" stroke-width="8" stroke-linecap="round" stroke-linejoin="round"/>
<circle cx="35.8764" cy="108.667" r="3.94969" fill="#05C26A"/>
<path d="M42.0158 118.326C46.9157 123.226 53.363 126.275 60.2592 126.954C67.1553 127.634 74.0736 125.901 79.8353 122.051C85.597 118.201 89.8455 112.473 91.8571 105.841C93.8686 99.2103 93.5186 92.0869 90.8668 85.6848C88.215 79.2828 83.4254 73.9983 77.3142 70.7318C71.2029 67.4652 64.148 66.4188 57.3517 67.7706C50.5553 69.1225 44.4379 72.7891 40.0419 78.1457C35.6459 83.5023 33.2432 90.2174 33.2432 97.1469" stroke="#05C26A" stroke-width="8" stroke-linecap="round" stroke-linejoin="round"/>
<path d="M70.1585 92.474H51.7266L53.6501 96.1757C54.3084 97.4922 54.6375 97.8214 54.3084 98.4797L53.3721 99.3859C52.0555 100.373 50.6878 98.8088 50.0807 98.0694L44.8146 92.474C43.1687 90.8283 43.7175 89.402 44.8146 88.5243L51.017 82.389C52.3849 81.0724 53.1343 81.8925 53.6501 82.3889C54.6375 83.3392 54.4522 84.3638 54.0303 85.0221L52.3849 87.866H70.1585C80.9688 87.866 82.5561 97.7403 82.0075 101.361C80.3618 110.906 73.8887 113.429 70.4876 113.539H59.626C57.2561 113.802 56.6637 111.893 56.6637 110.906C56.4004 108.536 58.5288 107.944 59.626 107.944H70.4876C74.7006 106.89 76.1927 103.116 76.4121 101.361C76.4121 94.2514 72.243 92.474 70.1585 92.474Z" fill="#05C26A"/>
</svg>
