<svg width="149" height="149" viewBox="0 0 149 149" fill="none" xmlns="http://www.w3.org/2000/svg">
<circle opacity="0.8" cx="74.1155" cy="74.1155" r="74.1155" fill="#05C26A" fill-opacity="0.15"/>
<path d="M60.772 17.219C66.8629 17.1211 74.986 16.4208 82.5736 14.5819C87.0471 13.4977 91.4515 11.9901 95.1744 9.90028C97.5234 8.58164 99.687 6.98219 101.417 5.03936C103.776 7.38179 107.276 9.81731 111.981 11.8776C118.738 14.837 128.133 17.0973 140.67 17.2272V72.8214C140.341 77.7303 139.715 84.7368 132.351 92.2645C132.322 92.2935 132.295 92.3231 132.267 92.3532C128.406 96.6343 116.722 106.992 101.266 113.785C93.6718 110.279 78.3068 101.874 68.8569 92.2595L68.8274 92.23C65.5087 88.9459 60.772 80.9987 60.772 72.9216V17.219Z" stroke="#05C26A" stroke-width="6" stroke-linecap="round" stroke-linejoin="round"/>
<path fill-rule="evenodd" clip-rule="evenodd" d="M93.3839 56.7232V47.5033C93.3839 45.3135 95.7581 40.2426 100.645 40.2426C102.873 39.9737 108.597 41.856 108.597 47.5033V56.7232H93.3839ZM86.5843 57.1418V46.8117C86.8916 42.6244 90.1339 34.0424 100.645 33.2125C109.865 32.521 115.512 41.9713 115.512 46.8117V57.2781C118.018 58.3434 119.776 60.8281 119.776 63.7232V75.539C119.776 79.405 116.642 82.539 112.776 82.539H88.9741C85.1081 82.539 81.9741 79.405 81.9741 75.539V63.7232C81.9741 60.6966 83.895 58.1185 86.5843 57.1418Z" fill="#05C26A"/>
</svg>
