<svg width="162" height="156" viewBox="0 0 162 156" fill="none" xmlns="http://www.w3.org/2000/svg">
<circle opacity="0.8" cx="74.1155" cy="80.9568" r="74.1155" fill="#05C26A" fill-opacity="0.15"/>
<path d="M122.132 40.344C119.755 43.9829 113.938 42.9184 110.77 41.6064C114.037 37.2101 116.092 31.6057 116.711 29.3531C117.127 28.4025 117.825 22.0753 118.122 19.0305C119.458 19.5999 122.652 21.2881 124.731 23.4863C125.375 24.0309 126.543 25.8924 126.068 28.9817C125.15 32.3483 123.077 39.334 122.132 40.344Z" fill="#05C26A"/>
<path d="M82.9953 105.621C82.3418 105.68 78.6633 103.665 76.9058 102.651C78.7475 101.938 81.8071 98.5661 83.9607 96.3382C87.5501 92.6251 89.1839 86.8573 90.5701 82.8966C91.6395 83.4313 94.7289 86.387 96.1399 87.798C97.2092 88.6297 96.932 90.9665 96.6597 92.031C94.1645 98.3879 89.58 103.294 87.5996 104.953C86.4114 106.2 84.035 105.918 82.9953 105.621Z" fill="#05C26A"/>
<path d="M112.107 17.2484C113.345 17.5455 113.493 18.0901 113.444 18.5109C114.186 22.4221 114.172 32.0862 108.171 39.4531C107.651 39.9977 106.151 41.072 104.309 41.0126C102.403 41.1116 98.2942 42.1265 97.1059 45.3941C93.2195 51.4341 85.2684 64.9995 84.5555 70.9405C84.1347 73.0694 83.9763 77.8767 86.7091 80.0749C87.2042 80.6194 87.9865 82.0948 87.1547 83.6395C85.4467 88.0705 80.5899 97.6158 74.8271 100.349C74.4558 100.67 73.2973 101.121 71.6338 100.349L69.1831 99.5317C67.7721 100.794 65.7967 104.849 69.1831 110.968C73.8271 119.36 95.6059 128.45 125.549 113.419C136.936 107.75 158.566 87.8279 153.991 53.4887C151.986 40.2947 139.763 12.4659 106.909 6.70312C94.8038 4.10392 66.2869 5.48521 49.0579 31.804C41.087 43.6365 30.4179 76.2875 54.9989 101.982C54.9989 103.839 50.1471 102.799 49.0579 101.982C25.7096 75.3666 35.0222 44.1069 42.597 31.804C58.9942 0.494738 92.3036 -1.88662 106.909 0.836349C146.179 8.14382 157.783 38.6362 160.304 53.1917C167.433 94.363 135.945 116.835 119.533 122.776C87.4518 133.589 69.1336 121.043 63.9847 113.419C59.826 106.171 63.4896 98.8634 65.8413 96.1156C64.4154 94.6898 63.7124 92.9966 63.5391 92.3282C62.4697 79.9115 70.0247 61.2616 73.9359 53.4887C81.9563 36.735 92.8234 23.9816 97.2544 19.6991C98.8585 17.798 101.388 17.0257 102.453 16.8771C107.206 16.4612 110.869 16.9514 112.107 17.2484Z" fill="#05C26A"/>
</svg>
