<svg width="191" height="149" viewBox="0 0 191 149" fill="none" xmlns="http://www.w3.org/2000/svg">
<circle opacity="0.8" cx="74.1155" cy="74.1155" r="74.1155" fill="#05C26A" fill-opacity="0.15"/>
<path fill-rule="evenodd" clip-rule="evenodd" d="M42.772 23.0964C42.772 21.336 44.199 19.9089 45.9594 19.9089L68.0978 19.9089C69.8582 19.9089 71.2852 21.336 71.2852 23.0964C71.2852 24.8568 69.8582 26.2839 68.0978 26.2839L45.9594 26.2839C44.199 26.2839 42.772 24.8568 42.772 23.0964Z" fill="#05C26A"/>
<path fill-rule="evenodd" clip-rule="evenodd" d="M19.7642 37.1213C19.7642 35.3609 21.1912 33.9338 22.9516 33.9338L57.0864 33.9338C58.8468 33.9338 60.2739 35.3609 60.2739 37.1213C60.2739 38.8817 58.8468 40.3088 57.0864 40.3088L22.9516 40.3088C21.1912 40.3088 19.7642 38.8817 19.7642 37.1213Z" fill="#05C26A"/>
<path fill-rule="evenodd" clip-rule="evenodd" d="M25.6753 50.6826C25.6753 48.9222 27.1024 47.4951 28.8628 47.4951L39.5842 47.4951C41.3446 47.4951 42.7717 48.9222 42.7717 50.6826C42.7717 52.443 41.3446 53.87 39.5842 53.87L28.8628 53.87C27.1024 53.87 25.6753 52.443 25.6753 50.6826Z" fill="#05C26A"/>
<path fill-rule="evenodd" clip-rule="evenodd" d="M84.5638 96.0315C90.4051 96.0315 94.8216 89.6856 94.8216 86.3242C94.8216 80.9311 90.4051 77.2834 84.5638 77.2834C78.7225 77.2834 74.7406 81.3402 73.9872 86.672C73.1723 92.439 77.7253 96.0315 84.5638 96.0315ZM84.4663 91.4532C87.4426 91.4532 89.6929 88.2165 89.6929 86.502C89.6929 83.7513 87.4426 81.8908 84.4663 81.8908C81.4901 81.8908 79.4612 83.96 79.0774 86.6794C78.6622 89.6209 80.982 91.4532 84.4663 91.4532Z" fill="#05C26A"/>
<path d="M140.569 74.1828C139.178 80.2332 134.407 81.3594 132.195 81.1662C130.456 81.3167 111.554 81.596 102.32 81.7168C98.4483 82.1572 96.3987 80.548 95.8578 79.6884L93.9743 77.8049C92.3747 75.1158 88.459 74.1731 86.7011 74.0379C81.972 73.1802 77.9887 76.1918 76.5881 77.8049C72.7168 81.4676 68.8706 81.9389 67.4314 81.7168H61.5201C60.1292 81.0677 53.2134 81.4463 49.9294 81.7168C46.7071 81.2763 46.1527 79.6401 46.2783 78.877C45.3047 76.2807 48.3067 75.2839 49.9294 75.11C52.7343 74.2523 61.7809 74.7527 65.9536 75.11C69.9408 75.5273 72.1933 74.0282 72.8211 73.2265C74.8611 69.6566 71.9711 68.3391 70.2711 68.1266H39.9613C36.5073 68.1266 35.5665 66.1369 35.5278 65.142C34.9947 61.8966 38.2613 61.1045 39.9613 61.1142H78.8773C82.6558 61.3228 83.9482 59.0375 84.1221 57.8688C84.9798 54.6234 80.9829 54.1018 78.8773 54.2467H53.9572C50.619 54.4553 49.3402 52.7109 49.118 51.8126C48.1444 48.5672 51.9384 47.4081 53.9572 47.2343H86.7011C91.0128 46.5852 90.2942 43.1968 89.3959 41.5838C87.1473 39.7524 82.0841 40.1059 79.8335 40.5116H70.2711C66.0753 40.7203 65.1036 38.5315 65.1422 37.4111C65.0263 34.073 68.5132 33.6055 70.2711 33.789H95.1623C97.2023 33.4876 98.3498 32.0407 98.6685 31.3549C100.384 27.9009 97.0458 26.8635 95.1623 26.7766H83.0499C79.5959 26.7766 78.829 24.7096 78.8773 23.676C78.3441 21.3115 81.4369 20.0829 83.0499 19.7642H135.585C144.858 19.8569 145.997 26.1777 145.408 29.3265L140.569 74.1828Z" fill="#05C26A"/>
<path fill-rule="evenodd" clip-rule="evenodd" d="M154.333 80.065C155.656 77.8725 159.995 73.58 166.764 73.9509C169.208 74.3566 174.385 76.1474 175.544 80.065C175.66 80.5094 176.292 81.4212 177.891 81.5139H184.875C186.468 81.3787 189.633 80.1926 189.54 76.5299L190.757 64.7363C191.085 63.5965 191.302 60.7143 189.54 58.3034L179.34 40.1928C178.712 38.7537 176.877 36.8605 172.559 36.8605H153.435C151.522 36.7832 147.761 37.7182 148.016 42.0763L144.452 75.8634C144.017 77.7469 144.121 81.5139 148.016 81.5139H151.001C151.747 81.5139 153.459 81.2241 154.333 80.065ZM163.431 39.7871L172.009 39.6712C173.342 39.6712 175.202 39.7001 176.152 41.7865C178.219 45.0995 182.487 52.1718 183.02 53.9568C183.706 55.2704 184.069 57.9092 180.035 57.9556H161.722C160.418 58.1681 157.908 57.7585 158.303 54.4204L159.549 43.0325C159.5 41.8444 159.954 39.7871 163.431 39.7871Z" fill="#05C26A"/>
<path fill-rule="evenodd" clip-rule="evenodd" d="M164.33 96.1763C170.171 96.1763 174.588 89.8303 174.588 86.469C174.588 81.0758 170.171 77.4282 164.33 77.4282C158.489 77.4282 154.507 81.485 153.753 86.8167C152.938 92.5838 157.491 96.1763 164.33 96.1763ZM164.232 91.5978C167.208 91.5978 169.459 88.3611 169.459 86.6467C169.459 83.8959 167.208 82.0355 164.232 82.0355C161.256 82.0355 159.227 84.1046 158.843 86.824C158.428 89.7655 160.748 91.5978 164.232 91.5978Z" fill="#05C26A"/>
</svg>
